<?xml version="1.0" standalone="no"?>
<!DOCTYPE svg PUBLIC "-//W3C//DTD SVG 20010904//EN"
 "http://www.w3.org/TR/2001/REC-SVG-20010904/DTD/svg10.dtd">
<svg version="1.0" xmlns="http://www.w3.org/2000/svg"
 width="512.000000pt" height="512.000000pt" viewBox="0 0 512.000000 512.000000"
 preserveAspectRatio="xMidYMid meet">
<metadata>
Created by potrace 1.11, written by Peter Selinger 2001-2013
</metadata>
<g transform="translate(0.000000,512.000000) scale(0.100000,-0.100000)"
fill="#000000" stroke="none">
<path d="M0 2560 l0 -2560 2560 0 2560 0 0 2560 0 2560 -2560 0 -2560 0 0
-2560z m1674 551 c77 -31 147 -99 169 -166 10 -27 17 -80 17 -121 0 -116 -37
-193 -115 -243 l-43 -27 47 -17 c62 -22 120 -73 156 -138 25 -46 30 -68 33
-144 3 -75 0 -100 -18 -149 -40 -104 -129 -176 -265 -211 -87 -22 -507 -22
-529 1 -14 14 -16 83 -16 614 0 545 1 600 17 615 14 15 42 16 252 13 219 -4
240 -6 295 -27z m1261 6 c4 -13 5 -43 3 -68 l-3 -44 -190 -5 -190 -5 -3 -554
c-2 -429 -5 -557 -15 -563 -18 -11 -115 -10 -138 2 -18 10 -19 27 -19 565 l0
555 -185 0 c-205 0 -205 0 -205 70 0 17 5 40 10 51 10 18 26 19 470 19 l460 0
5 -23z m873 11 c7 -7 12 -40 12 -76 l0 -65 -300 -469 c-166 -257 -303 -475
-306 -483 -5 -13 33 -15 309 -15 350 0 327 5 327 -70 0 -76 32 -70 -408 -70
-452 0 -432 -4 -432 82 0 28 8 64 19 86 10 20 150 241 310 490 160 249 291
455 291 458 0 2 -133 4 -295 4 l-295 0 -10 26 c-6 14 -10 34 -10 44 0 10 4 30
10 44 l10 26 378 0 c281 0 381 -3 390 -12z"/>
<path d="M1280 2801 l0 -201 130 0 c148 0 188 13 234 73 49 64 52 192 6 256
-37 53 -80 66 -232 69 l-138 4 0 -201z"/>
<path d="M1280 2241 l0 -221 143 0 c167 0 226 13 276 62 43 42 61 85 61 146 0
98 -37 159 -119 199 -51 25 -67 28 -208 31 l-153 4 0 -221z"/>
</g>
</svg>
